<?xml version="1.0" standalone="no"?>
<!DOCTYPE svg PUBLIC "-//W3C//DTD SVG 20010904//EN"
 "http://www.w3.org/TR/2001/REC-SVG-20010904/DTD/svg10.dtd">
<svg version="1.0" xmlns="http://www.w3.org/2000/svg"
 width="256.000000pt" height="256.000000pt" viewBox="0 0 256.000000 256.000000"
 preserveAspectRatio="xMidYMid meet">
<metadata>
Created by potrace 1.14, written by Peter Selinger 2001-2017
</metadata>
<g transform="translate(0.000000,256.000000) scale(0.100000,-0.100000)"
fill="#000000" stroke="none">
<path d="M642 2330 c-198 -52 -379 -204 -472 -395 -57 -120 -74 -198 -75 -350
0 -107 4 -142 22 -200 33 -104 88 -189 183 -285 81 -80 235 -200 258 -200 9 0
302 472 318 513 5 14 0 17 -35 17 -130 0 -216 151 -155 270 26 53 111 110 161
110 69 0 141 -47 175 -113 42 -84 40 -90 -272 -667 -155 -287 -280 -523 -278
-525 12 -10 476 -255 483 -255 6 0 32 42 59 93 107 201 369 683 379 695 7 9
21 2 56 -30 l46 -43 -18 -60 c-40 -131 -31 -259 28 -381 57 -116 158 -206 283
-250 140 -49 333 -23 468 64 161 104 253 304 224 486 -27 169 -103 287 -235
363 l-60 35 0 102 c0 98 -2 105 -37 177 -72 146 -189 227 -340 236 -55 3 -104
0 -148 -10 -36 -9 -65 -15 -65 -14 -58 306 -274 545 -559 617 -107 27 -291 27
-394 0z m1189 -946 c75 -72 27 -194 -76 -194 -49 0 -86 24 -105 69 -23 57 1
113 65 150 30 17 84 5 116 -25z m235 -499 c47 -36 64 -64 70 -122 8 -60 -19
-119 -68 -155 -27 -19 -46 -23 -100 -23 -77 0 -109 18 -145 81 -88 154 103
326 243 219z"/>
</g>
</svg>
